<svg xmlns="http://www.w3.org/2000/svg">

  <symbol id="icon_home" viewBox="0 0 24 24" stroke-width="1.5" stroke="currentColor" class="w-6 h-6" fill="none">
    <path stroke-linecap="round" stroke-linejoin="round" d="M2.25 12l8.954-8.955c.44-.439 1.152-.439 1.591 0L21.75 12M4.5 9.75v10.125c0 .621.504 1.125 1.125 1.125H9.75v-4.875c0-.621.504-1.125 1.125-1.125h2.25c.621 0 1.125.504 1.125 1.125V21h4.125c.621 0 1.125-.504 1.125-1.125V9.75M8.25 21h8.25" />
  </symbol>

  <symbol id="icon_categories" viewBox="0 0 24 24" stroke-width="1.5" stroke="currentColor" class="w-6 h-6" fill="none">
    <path stroke-linecap="round" stroke-linejoin="round" d="M2.25 7.125C2.25 6.504 2.754 6 3.375 6h6c.621 0 1.125.504 1.125 1.125v3.75c0 .621-.504 1.125-1.125 1.125h-6a1.125 1.125 0 01-1.125-1.125v-3.75zM14.25 8.625c0-.621.504-1.125 1.125-1.125h5.25c.621 0 1.125.504 1.125 1.125v8.25c0 .621-.504 1.125-1.125 1.125h-5.25a1.125 1.125 0 01-1.125-1.125v-8.25zM3.75 16.125c0-.621.504-1.125 1.125-1.125h5.25c.621 0 1.125.504 1.125 1.125v2.25c0 .621-.504 1.125-1.125 1.125h-5.25a1.125 1.125 0 01-1.125-1.125v-2.25z" />
  </symbol>

  <symbol id="icon_userNoPfp" viewBox="0 0 24 24" stroke-width="1.5" stroke="currentColor" class="w-6 h-6" fill="none">
    <path stroke-linecap="round" stroke-linejoin="round" d="M15.75 6a3.75 3.75 0 11-7.5 0 3.75 3.75 0 017.5 0zM4.501 20.118a7.5 7.5 0 0114.998 0A17.933 17.933 0 0112 21.75c-2.676 0-5.216-.584-7.499-1.632z" />
  </symbol>

  <symbol id="icon_add" viewBox="0 0 24 24" stroke-width="1.5" stroke="currentColor" class="w-6 h-6" fill="none">
    <path stroke-linecap="round" stroke-linejoin="round" d="M12 4.5v15m7.5-7.5h-15" />
  </symbol>

  <symbol id="icon_search" viewBox="0 0 24 24" stroke-width="1.5" stroke="currentColor" class="w-6 h-6" fill="none">
    <path stroke-linecap="round" stroke-linejoin="round" d="M21 21l-5.197-5.197m0 0A7.5 7.5 0 105.196 5.196a7.5 7.5 0 0010.607 10.607z" />
  </symbol>

  <symbol id="icon_mail" viewBox="0 0 24 24" stroke-width="1.5" stroke="currentColor" class="w-6 h-6" fill="none">
    <path stroke-linecap="round" stroke-linejoin="round" d="M21.75 6.75v10.5a2.25 2.25 0 01-2.25 2.25h-15a2.25 2.25 0 01-2.25-2.25V6.75m19.5 0A2.25 2.25 0 0019.5 4.5h-15a2.25 2.25 0 00-2.25 2.25m19.5 0v.243a2.25 2.25 0 01-1.07 1.916l-7.5 4.615a2.25 2.25 0 01-2.36 0L3.32 8.91a2.25 2.25 0 01-1.07-1.916V6.75" />
  </symbol>

  <symbol id="icon_calendar" viewBox="0 0 24 24" stroke-width="1.5" stroke="currentColor" class="w-6 h-6" fill="none">
    <path stroke-linecap="round" stroke-linejoin="round" d="M6.75 3v2.25M17.25 3v2.25M3 18.75V7.5a2.25 2.25 0 012.25-2.25h13.5A2.25 2.25 0 0121 7.5v11.25m-18 0A2.25 2.25 0 005.25 21h13.5A2.25 2.25 0 0021 18.75m-18 0v-7.5A2.25 2.25 0 015.25 9h13.5A2.25 2.25 0 0121 11.25v7.5" />
  </symbol>

  <symbol id="icon_location" viewBox="0 0 24 24" stroke-width="1.5" stroke="currentColor" class="w-6 h-6" fill="none">
    <path stroke-linecap="round" stroke-linejoin="round" d="M20.893 13.393l-1.135-1.135a2.252 2.252 0 01-.421-.585l-1.08-2.16a.414.414 0 00-.663-.107.827.827 0 01-.812.21l-1.273-.363a.89.89 0 00-.738 1.595l.587.39c.59.395.674 1.23.172 1.732l-.2.2c-.212.212-.33.498-.33.796v.41c0 .409-.11.809-.32 1.158l-1.315 2.191a2.11 2.11 0 01-1.81 1.025 1.055 1.055 0 01-1.055-1.055v-1.172c0-.92-.56-1.747-1.414-2.089l-.655-.261a2.25 2.25 0 01-1.383-2.46l.007-.042a2.25 2.25 0 01.29-.787l.09-.15a2.25 2.25 0 012.37-1.048l1.178.236a1.125 1.125 0 001.302-.795l.208-.73a1.125 1.125 0 00-.578-1.315l-.665-.332-.091.091a2.25 2.25 0 01-1.591.659h-.18c-.249 0-.487.1-.662.274a.931.931 0 01-1.458-1.137l1.411-2.353a2.25 2.25 0 00.286-.76m11.928 9.869A9 9 0 008.965 3.525m11.928 9.868A9 9 0 118.965 3.525" />
  </symbol>

  <symbol id="icon_filter" viewBox="0 0 24 24" stroke-width="1.5" stroke="currentColor" class="w-6 h-6" fill="none">
    <path stroke-linecap="round" stroke-linejoin="round" d="M12 3c2.755 0 5.455.232 8.083.678.533.09.917.556.917 1.096v1.044a2.25 2.25 0 01-.659 1.591l-5.432 5.432a2.25 2.25 0 00-.659 1.591v2.927a2.25 2.25 0 01-1.244 2.013L9.75 21v-6.568a2.25 2.25 0 00-.659-1.591L3.659 7.409A2.25 2.25 0 013 5.818V4.774c0-.54.384-1.006.917-1.096A48.32 48.32 0 0112 3z" />
  </symbol>

  <symbol id="icon_group" viewBox="0 0 24 24" stroke-width="1.5" stroke="currentColor" class="w-6 h-6" fill="none">
    <path stroke-linecap="round" stroke-linejoin="round" d="M18 18.72a9.094 9.094 0 003.741-.479 3 3 0 00-4.682-2.72m.94 3.198l.001.031c0 .225-.012.447-.037.666A11.944 11.944 0 0112 21c-2.17 0-4.207-.576-5.963-1.584A6.062 6.062 0 016 18.719m12 0a5.971 5.971 0 00-.941-3.197m0 0A5.995 5.995 0 0012 12.75a5.995 5.995 0 00-5.058 2.772m0 0a3 3 0 00-4.681 2.72 8.986 8.986 0 003.74.477m.94-3.197a5.971 5.971 0 00-.94 3.197M15 6.75a3 3 0 11-6 0 3 3 0 016 0zm6 3a2.25 2.25 0 11-4.5 0 2.25 2.25 0 014.5 0zm-13.5 0a2.25 2.25 0 11-4.5 0 2.25 2.25 0 014.5 0z" />
  </symbol>

  <symbol id="icon_checkCircle" viewBox="0 0 24 24" stroke-width="1.5" stroke="currentColor" class="w-6 h-6" fill="none">
    <path stroke-linecap="round" stroke-linejoin="round" d="M9 12.75L11.25 15 15 9.75M21 12a9 9 0 11-18 0 9 9 0 0118 0z" />
  </symbol>

  <symbol id="icon_copy" viewBox="0 0 24 24" stroke-width="2.25" stroke="currentColor" class="w-6 h-6" fill="none">
    <path stroke-linecap="round" stroke-linejoin="round" d="M15.75 17.25v3.375c0 .621-.504 1.125-1.125 1.125h-9.75a1.125 1.125 0 01-1.125-1.125V7.875c0-.621.504-1.125 1.125-1.125H6.75a9.06 9.06 0 011.5.124m7.5 10.376h3.375c.621 0 1.125-.504 1.125-1.125V11.25c0-4.46-3.243-8.161-7.5-8.876a9.06 9.06 0 00-1.5-.124H9.375c-.621 0-1.125.504-1.125 1.125v3.5m7.5 10.375H9.375a1.125 1.125 0 01-1.125-1.125v-9.25m12 6.625v-1.875a3.375 3.375 0 00-3.375-3.375h-1.5a1.125 1.125 0 01-1.125-1.125v-1.5a3.375 3.375 0 00-3.375-3.375H9.75" />
  </symbol>

  <symbol id="icon_back" viewBox="0 0 24 24" stroke-width="1.5" stroke="currentColor" class="w-6 h-6" fill="none">
    <path stroke-linecap="round" stroke-linejoin="round" d="M9 15L3 9m0 0l6-6M3 9h12a6 6 0 010 12h-3" />
  </symbol>

  <symbol id="icon_title" viewBox="0 0 24 24" stroke-width="1.5" stroke="currentColor" class="w-6 h-6" fill="none">
    <path stroke-linecap="round" stroke-linejoin="round" d="M9.568 3H5.25A2.25 2.25 0 003 5.25v4.318c0 .597.237 1.17.659 1.591l9.581 9.581c.699.699 1.78.872 2.607.33a18.095 18.095 0 005.223-5.223c.542-.827.369-1.908-.33-2.607L11.16 3.66A2.25 2.25 0 009.568 3z" />
    <path stroke-linecap="round" stroke-linejoin="round" d="M6 6h.008v.008H6V6z" />
  </symbol>

  <symbol id="icon_close" viewBox="0 0 24 24" stroke-width="1.5" stroke="currentColor" class="w-6 h-6" fill="none">
    <path stroke-linecap="round" stroke-linejoin="round" d="M9.75 9.75l4.5 4.5m0-4.5l-4.5 4.5M21 12a9 9 0 11-18 0 9 9 0 0118 0z" />
  </symbol>

  <symbol id="icon_options" viewBox="0 0 24 24" stroke-width="1.5" stroke="currentColor" class="w-6 h-6" fill="none">
    <path stroke-linecap="round" stroke-linejoin="round" d="M8.625 12a.375.375 0 11-.75 0 .375.375 0 01.75 0zm0 0H8.25m4.125 0a.375.375 0 11-.75 0 .375.375 0 01.75 0zm0 0H12m4.125 0a.375.375 0 11-.75 0 .375.375 0 01.75 0zm0 0h-.375M21 12a9 9 0 11-18 0 9 9 0 0118 0z" />
  </symbol>

  <symbol id="icon_settings" viewBox="0 0 24 24" stroke-width="1.5" stroke="currentColor" class="w-6 h-6" fill="none">
    <path stroke-linecap="round" stroke-linejoin="round" d="M11.42 15.17L17.25 21A2.652 2.652 0 0021 17.25l-5.877-5.877M11.42 15.17l2.496-3.03c.317-.384.74-.626 1.208-.766M11.42 15.17l-4.655 5.653a2.548 2.548 0 11-3.586-3.586l6.837-5.63m5.108-.233c.55-.164 1.163-.188 1.743-.14a4.5 4.5 0 004.486-6.336l-3.276 3.277a3.004 3.004 0 01-2.25-2.25l3.276-3.276a4.5 4.5 0 00-6.336 4.486c.091 1.076-.071 2.264-.904 2.95l-.102.085m-1.745 1.437L5.909 7.5H4.5L2.25 3.75l1.5-1.5L7.5 4.5v1.409l4.26 4.26m-1.745 1.437l1.745-1.437m6.615 8.206L15.75 15.75M4.867 19.125h.008v.008h-.008v-.008z" />
  </symbol>

  <symbol id="icon_theme" viewBox="0 0 24 24" stroke-width="1.5" stroke="currentColor" class="w-6 h-6" fill="none">
    <path stroke-linecap="round" stroke-linejoin="round" d="M12 18v-5.25m0 0a6.01 6.01 0 001.5-.189m-1.5.189a6.01 6.01 0 01-1.5-.189m3.75 7.478a12.06 12.06 0 01-4.5 0m3.75 2.383a14.406 14.406 0 01-3 0M14.25 18v-.192c0-.983.658-1.823 1.508-2.316a7.5 7.5 0 10-7.517 0c.85.493 1.509 1.333 1.509 2.316V18" />
  </symbol>

  <symbol id="icon_moon" viewBox="0 0 24 24" stroke-width="1.5" stroke="currentColor" class="w-6 h-6" fill="none">
    <path stroke-linecap="round" stroke-linejoin="round" d="M21.752 15.002A9.718 9.718 0 0118 15.75c-5.385 0-9.75-4.365-9.75-9.75 0-1.33.266-2.597.748-3.752A9.753 9.753 0 003 11.25C3 16.635 7.365 21 12.75 21a9.753 9.753 0 009.002-5.998z" />
  </symbol>

  <symbol id="icon_sun" viewBox="0 0 24 24" stroke-width="1.5" stroke="currentColor" class="w-6 h-6" fill="none">
    <path stroke-linecap="round" stroke-linejoin="round" d="M12 3v2.25m6.364.386l-1.591 1.591M21 12h-2.25m-.386 6.364l-1.591-1.591M12 18.75V21m-4.773-4.227l-1.591 1.591M5.25 12H3m4.227-4.773L5.636 5.636M15.75 12a3.75 3.75 0 11-7.5 0 3.75 3.75 0 017.5 0z" />
  </symbol>

  <symbol id="icon_logout" viewBox="0 0 24 24" stroke-width="1.5" stroke="currentColor" class="w-6 h-6" fill="none">
    <path fill-rule="evenodd" d="M9.401 3.003c1.155-2 4.043-2 5.197 0l7.355 12.748c1.154 2-.29 4.5-2.599 4.5H4.645c-2.309 0-3.752-2.5-2.598-4.5L9.4 3.003zM12 8.25a.75.75 0 01.75.75v3.75a.75.75 0 01-1.5 0V9a.75.75 0 01.75-.75zm0 8.25a.75.75 0 100-1.5.75.75 0 000 1.5z" clip-rule="evenodd" />
  </symbol>

</svg>
